<svg version="1.1" xmlns="http://www.w3.org/2000/svg" xmlns:xlink="http://www.w3.org/1999/xlink" width="636.1006" height="596.28765" viewBox="0,0,636.1006,596.28765"><g transform="translate(72.79504,95.62129)"><g data-paper-data="{&quot;isPaintingLayer&quot;:true}" fill-rule="nonzero" stroke-linecap="butt" stroke-linejoin="miter" stroke-miterlimit="10" stroke-dasharray="" stroke-dashoffset="0" style="mix-blend-mode: normal"><path d="M138.5,159c0,1.10457 -0.89543,2 -2,2c-1.10457,0 -2,-0.89543 -2,-2c0,-1.10457 0.89543,-2 2,-2c1.10457,0 2,0.89543 2,2z" fill="#ff6666" stroke="none" stroke-width="0"/><path d="M-72.54503,500.41635v-595.78764h635.6006v595.78765z" fill="#ffb941" stroke="#000000" stroke-width="0.5"/><path d="M15.52554,271.05856c0,-3.73165 3.02511,-6.75675 6.75676,-6.75675c3.73166,0 6.75675,3.0251 6.75675,6.75675c0,3.73165 -3.0251,6.75675 -6.75675,6.75675c-3.73165,0 -6.75676,-3.0251 -6.75676,-6.75675z" fill="#bb882f" stroke="none" stroke-width="0"/><path d="M79.0841,276.05856c0,-3.73165 3.0251,-6.75675 6.75676,-6.75675c3.73166,0 6.75675,3.0251 6.75675,6.75675c0,3.73165 -3.0251,6.75675 -6.75675,6.75675c-3.73166,0 -6.75676,-3.0251 -6.75676,-6.75675z" fill="#bb882f" stroke="none" stroke-width="0"/><path d="M25.52554,204.48199c0,-3.73165 3.02511,-6.75675 6.75676,-6.75675c3.73166,0 6.75675,3.0251 6.75675,6.75675c0,3.73165 -3.0251,6.75675 -6.75675,6.75675c-3.73165,0 -6.75676,-3.0251 -6.75676,-6.75675z" fill="#bb882f" stroke="none" stroke-width="0"/><path d="M30.52554,323.5961c0,-3.73165 3.02511,-6.75675 6.75676,-6.75675c3.73166,0 6.75675,3.0251 6.75675,6.75675c0,3.73165 -3.0251,6.75675 -6.75675,6.75675c-3.73166,0 -6.75676,-3.0251 -6.75676,-6.75675z" fill="#bb882f" stroke="none" stroke-width="0"/><path d="M61.05106,247.51502c0,-3.73165 3.02511,-6.75675 6.75676,-6.75675c3.73166,0 6.75675,3.0251 6.75675,6.75675c0,3.73165 -3.0251,6.75675 -6.75675,6.75675c-3.73166,0 -6.75676,-3.0251 -6.75676,-6.75675z" fill="#bb882f" stroke="none" stroke-width="0"/><path d="M40.52554,165.42793c0,-3.73165 3.0251,-6.75675 6.75676,-6.75675c3.73166,0 6.75675,3.0251 6.75675,6.75675c0,3.73165 -3.0251,6.75675 -6.75675,6.75675c-3.73166,0 -6.75676,-3.0251 -6.75676,-6.75675z" fill="#bb882f" stroke="none" stroke-width="0"/><path d="M75.55558,191.44895c0,-3.73165 3.0251,-6.75675 6.75676,-6.75675c3.73166,0 6.75675,3.0251 6.75675,6.75675c0,3.73165 -3.0251,6.75675 -6.75675,6.75675c-3.73166,0 -6.75676,-3.0251 -6.75676,-6.75675z" fill="#bb882f" stroke="none" stroke-width="0"/><path d="M83.55857,306.05856c0,-3.73165 3.0251,-6.75675 6.75676,-6.75675c3.73166,0 6.75675,3.0251 6.75675,6.75675c0,3.73165 -3.0251,6.75675 -6.75675,6.75675c-3.73166,0 -6.75676,-3.0251 -6.75676,-6.75675z" fill="#bb882f" stroke="none" stroke-width="0"/><path d="M124.59462,324.57208c0,-3.73165 3.02511,-6.75675 6.75676,-6.75675c3.73165,0 6.75675,3.0251 6.75675,6.75675c0,3.73165 -3.0251,6.75675 -6.75675,6.75675c-3.73166,0 -6.75676,-3.0251 -6.75676,-6.75675z" fill="#bb882f" stroke="none" stroke-width="0"/><path d="M60.52554,316.05856c0,-3.73165 3.0251,-6.75675 6.75676,-6.75675c3.73166,0 6.75675,3.0251 6.75675,6.75675c0,3.73165 -3.0251,6.75675 -6.75675,6.75675c-3.73166,0 -6.75676,-3.0251 -6.75676,-6.75675z" fill="#bb882f" stroke="none" stroke-width="0"/><path d="M140.10512,277.01952c0,-3.73165 3.0251,-6.75675 6.75676,-6.75675c3.73165,0 6.75675,3.0251 6.75675,6.75675c0,3.73165 -3.0251,6.75675 -6.75675,6.75675c-3.73165,0 -6.75676,-3.0251 -6.75676,-6.75675z" fill="#bb882f" stroke="none" stroke-width="0"/><path d="M161.62164,321.05856c0,-3.73165 3.0251,-6.75675 6.75676,-6.75675c3.73165,0 6.75675,3.0251 6.75675,6.75675c0,3.73165 -3.0251,6.75675 -6.75675,6.75675c-3.73165,0 -6.75676,-3.0251 -6.75676,-6.75675z" fill="#bb882f" stroke="none" stroke-width="0"/><path d="M139.59462,229.96247c0,-3.73165 3.02511,-6.75675 6.75676,-6.75675c3.73165,0 6.75675,3.0251 6.75675,6.75675c0,3.73165 -3.0251,6.75675 -6.75675,6.75675c-3.73165,0 -6.75676,-3.0251 -6.75676,-6.75675z" fill="#bb882f" stroke="none" stroke-width="0"/><path d="M144.59462,168.8964c0,-3.73165 3.02511,-6.75675 6.75676,-6.75675c3.73165,0 6.75675,3.0251 6.75675,6.75675c0,3.73165 -3.0251,6.75675 -6.75675,6.75675c-3.73165,0 -6.75676,-3.0251 -6.75676,-6.75675z" fill="#bb882f" stroke="none" stroke-width="0"/><path d="M218.66367,173.8964c0,-3.73165 3.02511,-6.75675 6.75676,-6.75675c3.73165,0 6.75675,3.0251 6.75675,6.75675c0,3.73165 -3.0251,6.75675 -6.75675,6.75675c-3.73165,0 -6.75676,-3.0251 -6.75676,-6.75675z" fill="#bb882f" stroke="none" stroke-width="0"/><path d="M223.66368,223.94145c0,-3.73165 3.0251,-6.75675 6.75676,-6.75675c3.73165,0 6.75675,3.0251 6.75675,6.75675c0,3.73165 -3.0251,6.75675 -6.75675,6.75675c-3.73165,0 -6.75676,-3.0251 -6.75676,-6.75675z" fill="#bb882f" stroke="none" stroke-width="0"/><path d="M195.63065,218.43093c0,-3.73165 3.0251,-6.75675 6.75676,-6.75675c3.73165,0 6.75675,3.0251 6.75675,6.75675c0,3.73165 -3.0251,6.75676 -6.75675,6.75676c-3.73165,0 -6.75676,-3.0251 -6.75676,-6.75676z" fill="#bb882f" stroke="none" stroke-width="0"/><path d="M208.13815,130.33784c0,-3.73165 3.0251,-6.75675 6.75676,-6.75675c3.73165,0 6.75675,3.0251 6.75675,6.75675c0,3.73165 -3.0251,6.75676 -6.75675,6.75676c-3.73165,0 -6.75676,-3.0251 -6.75676,-6.75676z" fill="#bb882f" stroke="none" stroke-width="0"/><path d="M283.70873,238.94145c0,-3.73165 3.0251,-6.75675 6.75676,-6.75675c3.73165,0 6.75675,3.0251 6.75675,6.75675c0,3.73165 -3.0251,6.75676 -6.75675,6.75676c-3.73165,0 -6.75676,-3.0251 -6.75676,-6.75676z" fill="#bb882f" stroke="none" stroke-width="0"/><path d="M272.1922,173.37087c0,-3.73165 3.0251,-6.75675 6.75676,-6.75675c3.73165,0 6.75675,3.0251 6.75675,6.75675c0,3.73165 -3.0251,6.75676 -6.75675,6.75676c-3.73165,0 -6.75676,-3.0251 -6.75676,-6.75676z" fill="#bb882f" stroke="none" stroke-width="0"/><path d="M325.24025,179.87238c0,-3.73165 3.0251,-6.75675 6.75676,-6.75675c3.73165,0 6.75675,3.0251 6.75675,6.75675c0,3.73165 -3.0251,6.75675 -6.75675,6.75675c-3.73165,0 -6.75676,-3.0251 -6.75676,-6.75675z" fill="#bb882f" stroke="none" stroke-width="0"/><path d="M330.24027,211.8994c0,-3.73165 3.0251,-6.75675 6.75676,-6.75675c3.73165,0 6.75675,3.0251 6.75675,6.75675c0,3.73165 -3.0251,6.75675 -6.75675,6.75675c-3.73165,0 -6.75676,-3.0251 -6.75676,-6.75675z" fill="#bb882f" stroke="none" stroke-width="0"/><path d="M335.24027,255.93844c0,-3.73165 3.0251,-6.75676 6.75676,-6.75676c3.73165,0 6.75675,3.0251 6.75675,6.75676c0,3.73165 -3.0251,6.75675 -6.75675,6.75675c-3.73165,0 -6.75676,-3.0251 -6.75676,-6.75675z" fill="#bb882f" stroke="none" stroke-width="0"/><path d="M296.69672,212.89039c0,-3.73165 3.0251,-6.75676 6.75676,-6.75676c3.73165,0 6.75675,3.0251 6.75675,6.75676c0,3.73165 -3.0251,6.75675 -6.75675,6.75675c-3.73165,0 -6.75676,-3.0251 -6.75676,-6.75675z" fill="#bb882f" stroke="none" stroke-width="0"/><path d="M310.70572,282.45496c0,-3.73165 3.0251,-6.75675 6.75676,-6.75675c3.73165,0 6.75675,3.0251 6.75675,6.75675c0,3.73165 -3.0251,6.75675 -6.75675,6.75675c-3.73165,0 -6.75676,-3.0251 -6.75676,-6.75675z" fill="#bb882f" stroke="none" stroke-width="0"/><path d="M267.65768,273.94144c0,-3.73165 3.0251,-6.75675 6.75676,-6.75675c3.73165,0 6.75675,3.0251 6.75675,6.75675c0,3.73165 -3.0251,6.75675 -6.75675,6.75675c-3.73165,0 -6.75676,-3.0251 -6.75676,-6.75675z" fill="#bb882f" stroke="none" stroke-width="0"/><path d="M211.09612,260.92342c0,-3.73165 3.02511,-6.75675 6.75676,-6.75675c3.73166,0 6.75676,3.0251 6.75676,6.75675c0,3.73165 -3.0251,6.75675 -6.75676,6.75675c-3.73166,0 -6.75676,-3.0251 -6.75676,-6.75675z" fill="#bb882f" stroke="none" stroke-width="0"/><path d="M360.24027,270.42793c0,-3.73165 3.0251,-6.75675 6.75676,-6.75675c3.73165,0 6.75675,3.0251 6.75675,6.75675c0,3.73165 -3.0251,6.75675 -6.75675,6.75675c-3.73165,0 -6.75676,-3.0251 -6.75676,-6.75675z" fill="#bb882f" stroke="none" stroke-width="0"/><path d="M383.25828,173.32583c0,-3.73165 3.0251,-6.75676 6.75676,-6.75676c3.73165,0 6.75675,3.0251 6.75675,6.75676c0,3.73165 -3.0251,6.75675 -6.75675,6.75675c-3.73165,0 -6.75676,-3.0251 -6.75676,-6.75675z" fill="#bb882f" stroke="none" stroke-width="0"/><path d="M400.2703,221.86937c0,-3.73165 3.0251,-6.75675 6.75676,-6.75675c3.73165,0 6.75675,3.0251 6.75675,6.75675c0,3.73165 -3.0251,6.75675 -6.75675,6.75675c-3.73165,0 -6.75676,-3.0251 -6.75676,-6.75675z" fill="#bb882f" stroke="none" stroke-width="0"/><path d="M402.26729,274.91742c0,-3.73165 3.0251,-6.75675 6.75676,-6.75675c3.73165,0 6.75675,3.0251 6.75675,6.75675c0,3.73165 -3.0251,6.75675 -6.75675,6.75675c-3.73165,0 -6.75676,-3.0251 -6.75676,-6.75675z" fill="#bb882f" stroke="none" stroke-width="0"/><path d="M410.2703,320.45796c0,-3.73165 3.0251,-6.75675 6.75676,-6.75675c3.73165,0 6.75675,3.0251 6.75675,6.75675c0,3.73165 -3.0251,6.75675 -6.75675,6.75675c-3.73165,0 -6.75676,-3.0251 -6.75676,-6.75675z" fill="#bb882f" stroke="none" stroke-width="0"/><path d="M341.69672,329.96246c0,-3.73165 3.0251,-6.75675 6.75676,-6.75675c3.73165,0 6.75675,3.0251 6.75675,6.75675c0,3.73165 -3.0251,6.75675 -6.75675,6.75675c-3.73165,0 -6.75676,-3.0251 -6.75676,-6.75675z" fill="#bb882f" stroke="none" stroke-width="0"/><path d="M447.29732,241.86937c0,-3.73165 3.0251,-6.75675 6.75676,-6.75675c3.73165,0 6.75675,3.0251 6.75675,6.75675c0,3.73165 -3.0251,6.75675 -6.75675,6.75675c-3.73165,0 -6.75676,-3.0251 -6.75676,-6.75675z" fill="#bb882f" stroke="none" stroke-width="0"/><path d="M288.63365,327.95045c0,-3.73165 3.0251,-6.75675 6.75676,-6.75675c3.73165,0 6.75675,3.0251 6.75675,6.75675c0,3.73165 -3.0251,6.75675 -6.75675,6.75675c-3.73165,0 -6.75676,-3.0251 -6.75676,-6.75675z" fill="#bb882f" stroke="none" stroke-width="0"/><path d="M427.26729,167.78529c0,-3.73165 3.0251,-6.75675 6.75676,-6.75675c3.73165,0 6.75675,3.0251 6.75675,6.75675c0,3.73165 -3.0251,6.75676 -6.75675,6.75676c-3.73165,0 -6.75676,-3.0251 -6.75676,-6.75676z" fill="#bb882f" stroke="none" stroke-width="0"/><path d="M219.05407,306.41892c0,-3.73165 3.02511,-6.75675 6.75676,-6.75675c3.73166,0 6.75676,3.0251 6.75676,6.75675c0,3.73165 -3.0251,6.75675 -6.75676,6.75675c-3.73166,0 -6.75676,-3.0251 -6.75676,-6.75675z" fill="#bb882f" stroke="none" stroke-width="0"/><path d="M440.2703,149.25676c0,-3.73166 3.0251,-6.75676 6.75676,-6.75676c3.73165,0 6.75675,3.0251 6.75675,6.75676c0,3.73166 -3.0251,6.75676 -6.75675,6.75676c-3.73165,0 -6.75676,-3.0251 -6.75676,-6.75676z" fill="#bb882f" stroke="none" stroke-width="0"/><path d="M216.14116,82.78529c0,-3.73165 3.0251,-6.75675 6.75676,-6.75675c3.73165,0 6.75675,3.0251 6.75675,6.75675c0,3.73165 -3.0251,6.75676 -6.75675,6.75676c-3.73165,0 -6.75676,-3.0251 -6.75676,-6.75676z" fill="#bb882f" stroke="none" stroke-width="0"/><path d="M261.6817,114.81231c0,-3.73165 3.0251,-6.75675 6.75676,-6.75675c3.73165,0 6.75675,3.0251 6.75675,6.75675c0,3.73165 -3.0251,6.75676 -6.75675,6.75676c-3.73165,0 -6.75676,-3.0251 -6.75676,-6.75676z" fill="#bb882f" stroke="none" stroke-width="0"/><path d="M136.05107,91.28379c0,-3.73165 3.0251,-6.75675 6.75676,-6.75675c3.73165,0 6.75675,3.0251 6.75675,6.75675c0,3.73165 -3.0251,6.75676 -6.75675,6.75676c-3.73165,0 -6.75676,-3.0251 -6.75676,-6.75676z" fill="#bb882f" stroke="none" stroke-width="0"/><path d="M126.03605,132.31982c0,-3.73165 3.0251,-6.75675 6.75676,-6.75675c3.73165,0 6.75675,3.0251 6.75675,6.75675c0,3.73165 -3.0251,6.75676 -6.75675,6.75676c-3.73165,0 -6.75676,-3.0251 -6.75676,-6.75676z" fill="#bb882f" stroke="none" stroke-width="0"/><path d="M84.48951,104.28679c0,-3.73165 3.0251,-6.75675 6.75676,-6.75675c3.73165,0 6.75675,3.0251 6.75675,6.75675c0,3.73165 -3.0251,6.75676 -6.75675,6.75676c-3.73165,0 -6.75676,-3.0251 -6.75676,-6.75676z" fill="#bb882f" stroke="none" stroke-width="0"/><path d="M30.93095,109.28679c0,-3.73165 3.0251,-6.75675 6.75676,-6.75675c3.73165,0 6.75675,3.0251 6.75675,6.75675c0,3.73165 -3.0251,6.75676 -6.75675,6.75676c-3.73165,0 -6.75676,-3.0251 -6.75676,-6.75676z" fill="#bb882f" stroke="none" stroke-width="0"/><path d="M94.48951,49.72223c0,-3.73165 3.0251,-6.75675 6.75676,-6.75675c3.73165,0 6.75675,3.0251 6.75675,6.75675c0,3.73165 -3.0251,6.75676 -6.75675,6.75676c-3.73165,0 -6.75676,-3.0251 -6.75676,-6.75676z" fill="#bb882f" stroke="none" stroke-width="0"/><path d="M60.45047,69.73724c0,-3.73165 3.0251,-6.75675 6.75676,-6.75675c3.73165,0 6.75675,3.0251 6.75675,6.75675c0,3.73165 -3.0251,6.75676 -6.75675,6.75676c-3.73165,0 -6.75676,-3.0251 -6.75676,-6.75676z" fill="#bb882f" stroke="none" stroke-width="0"/><path d="M169.05407,55.21772c0,-3.73165 3.0251,-6.75675 6.75676,-6.75675c3.73165,0 6.75675,3.0251 6.75675,6.75675c0,3.73165 -3.0251,6.75676 -6.75675,6.75676c-3.73165,0 -6.75676,-3.0251 -6.75676,-6.75676z" fill="#bb882f" stroke="none" stroke-width="0"/><path d="M299.71473,116.80931c0,-3.73165 3.0251,-6.75675 6.75676,-6.75675c3.73165,0 6.75675,3.0251 6.75675,6.75675c0,3.73165 -3.0251,6.75676 -6.75675,6.75676c-3.73165,0 -6.75676,-3.0251 -6.75676,-6.75676z" fill="#bb882f" stroke="none" stroke-width="0"/><path d="M351.26128,124.81232c0,-3.73165 3.0251,-6.75675 6.75676,-6.75675c3.73165,0 6.75675,3.0251 6.75675,6.75675c0,3.73165 -3.0251,6.75676 -6.75675,6.75676c-3.73165,0 -6.75676,-3.0251 -6.75676,-6.75676z" fill="#bb882f" stroke="none" stroke-width="0"/><path d="M357.76278,80.26277c0,-3.73165 3.0251,-6.75675 6.75676,-6.75675c3.73165,0 6.75675,3.0251 6.75675,6.75675c0,3.73165 -3.0251,6.75676 -6.75675,6.75676c-3.73165,0 -6.75676,-3.0251 -6.75676,-6.75676z" fill="#bb882f" stroke="none" stroke-width="0"/><path d="M409.30933,109.28679c0,-3.73165 3.0251,-6.75675 6.75676,-6.75675c3.73165,0 6.75675,3.0251 6.75675,6.75675c0,3.73165 -3.0251,6.75676 -6.75675,6.75676c-3.73165,0 -6.75676,-3.0251 -6.75676,-6.75676z" fill="#bb882f" stroke="none" stroke-width="0"/><path d="M414.30933,64.73724c0,-3.73165 3.0251,-6.75675 6.75676,-6.75675c3.73165,0 6.75675,3.0251 6.75675,6.75675c0,3.73165 -3.0251,6.75676 -6.75675,6.75676c-3.73165,0 -6.75676,-3.0251 -6.75676,-6.75676z" fill="#bb882f" stroke="none" stroke-width="0"/><path d="M264.65468,71.23874c0,-3.73165 3.0251,-6.75675 6.75676,-6.75675c3.73165,0 6.75675,3.0251 6.75675,6.75675c0,3.73165 -3.0251,6.75676 -6.75675,6.75676c-3.73165,0 -6.75676,-3.0251 -6.75676,-6.75676z" fill="#bb882f" stroke="none" stroke-width="0"/><path d="M271.15618,28.19069c0,-3.73165 3.0251,-6.75675 6.75676,-6.75675c3.73165,0 6.75675,3.0251 6.75675,6.75675c0,3.73165 -3.0251,6.75676 -6.75675,6.75676c-3.73165,0 -6.75676,-3.0251 -6.75676,-6.75676z" fill="#bb882f" stroke="none" stroke-width="0"/><path d="M303.1832,64.72222c0,-3.73165 3.0251,-6.75675 6.75676,-6.75675c3.73165,0 6.75675,3.0251 6.75675,6.75675c0,3.73165 -3.0251,6.75676 -6.75675,6.75676c-3.73165,0 -6.75676,-3.0251 -6.75676,-6.75676z" fill="#bb882f" stroke="none" stroke-width="0"/><path d="M279.65468,86.23874c0,-3.73165 3.0251,-6.75675 6.75676,-6.75675c3.73165,0 6.75675,3.0251 6.75675,6.75675c0,3.73165 -3.0251,6.75676 -6.75675,6.75676c-3.73165,0 -6.75676,-3.0251 -6.75676,-6.75676z" fill="#bb882f" stroke="none" stroke-width="0"/></g></g></svg>