<svg version="1.1" xmlns="http://www.w3.org/2000/svg" xmlns:xlink="http://www.w3.org/1999/xlink" width="74.71045" height="31.01947" viewBox="0,0,74.71045,31.01947"><g transform="translate(-203.39266,-164.49027)"><g data-paper-data="{&quot;isPaintingLayer&quot;:true}" fill-rule="nonzero" stroke="none" stroke-width="0" stroke-linecap="butt" stroke-linejoin="miter" stroke-miterlimit="10" stroke-dasharray="" stroke-dashoffset="0" style="mix-blend-mode: normal"><path d="M278.10311,180.67852c0,4.02721 -13.89589,7.2919 -31.03733,7.2919c-17.14144,0 -31.03733,-3.2647 -31.03733,-7.2919c0,-4.02721 13.89589,-7.2919 31.03733,-7.2919c17.14144,0 31.03733,3.2647 31.03733,7.2919z" fill="#ff6666"/><path d="M216.32884,187.89687c-5.18421,5.18421 -10.27472,8.49896 -11.36998,7.40371c-1.09526,-1.09526 2.2195,-6.18577 7.40371,-11.36998c5.18421,-5.18421 10.27472,-8.49896 11.36998,-7.40371c1.09526,1.09526 -2.2195,6.18577 -7.40371,11.36998z" fill="#ff6666"/><path d="M214.9718,172.10313c5.18421,5.18421 8.49896,10.27473 7.4037,11.36998c-1.09525,1.09526 -6.18577,-2.2195 -11.36998,-7.40371c-5.18421,-5.18421 -8.49896,-10.27472 -7.40371,-11.36998c1.09525,-1.09526 6.18577,2.2195 11.36998,7.40371z" fill="#ff6666"/><path d="M267.85853,179.06585c0,-0.82609 0.66968,-1.49577 1.49577,-1.49577c0.82609,0 1.49577,0.66968 1.49577,1.49577c0,0.82609 -0.66968,1.49577 -1.49577,1.49577c-0.82609,0 -1.49577,-0.66968 -1.49577,-1.49577z" fill="#000000"/></g></g></svg>